<?xml version="1.0" encoding="UTF-8"?>
<svg id="Layer_2" data-name="Layer 2" xmlns="http://www.w3.org/2000/svg" viewBox="0 0 1178.18 96">
  <defs>
    <style>
      .cls-1 {
        fill: #0000cd;
        stroke-width: 0px;
      }
    </style>
  </defs>
  <g id="Layer_1-2" data-name="Layer 1">
    <path class="cls-1" d="m69.82,43.64v-8.73h-8.73v-8.73h-8.73v-8.73h-8.73v-8.73h-8.73V0H0v8.73h8.73v8.73h8.73v8.73h8.73v8.73h17.45v8.73h-8.73v8.73h8.73v8.73h-17.45v8.73h-8.73v8.73h-8.73v8.73H0v8.73h34.91v-8.73h8.73v-8.73h8.73v-8.73h8.73v-8.73h8.73v-8.73h8.73v-8.73h-8.73Zm-8.73,8.73h-8.73v-8.73h8.73v8.73Z"/>
    <path class="cls-1" d="m148.36,43.64v-8.73h-8.73v-8.73h-8.73v-8.73h-8.73v-8.73h-8.73V0h-34.91v8.73h8.73v8.73h8.73v8.73h8.73v8.73h17.45v8.73h-8.73v8.73h8.73v8.73h-17.45v8.73h-8.73v8.73h-8.73v8.73h-8.73v8.73h34.91v-8.73h8.73v-8.73h8.73v-8.73h8.73v-8.73h8.73v-8.73h8.73v-8.73h-8.73Zm-8.73,8.73h-8.73v-8.73h8.73v8.73Z"/>
    <path class="cls-1" d="m226.91,43.64v-8.73h-8.73v-8.73h-8.73v-8.73h-8.73v-8.73h-8.73V0h-34.91v8.73h8.73v8.73h8.73v8.73h8.73v8.73h17.45v8.73h-8.73v8.73h8.73v8.73h-17.45v8.73h-8.73v8.73h-8.73v8.73h-8.73v8.73h34.91v-8.73h8.73v-8.73h8.73v-8.73h8.73v-8.73h8.73v-8.73h8.73v-8.73h-8.73Zm-8.73,8.73h-8.73v-8.73h8.73v8.73Z"/>
    <path class="cls-1" d="m305.45,43.64v-8.73h-8.73v-8.73h-8.73v-8.73h-8.73v-8.73h-8.73V0h-34.91v8.73h8.73v8.73h8.73v8.73h8.73v8.73h17.45v8.73h-8.73v8.73h8.73v8.73h-17.45v8.73h-8.73v8.73h-8.73v8.73h-8.73v8.73h34.91v-8.73h8.73v-8.73h8.73v-8.73h8.73v-8.73h8.73v-8.73h8.73v-8.73h-8.73Zm-8.73,8.73h-8.73v-8.73h8.73v8.73Z"/>
    <path class="cls-1" d="m384,43.64v-8.73h-8.73v-8.73h-8.73v-8.73h-8.73v-8.73h-8.73V0h-34.91v8.73h8.73v8.73h8.73v8.73h8.73v8.73h17.45v8.73h-8.73v8.73h8.73v8.73h-17.45v8.73h-8.73v8.73h-8.73v8.73h-8.73v8.73h34.91v-8.73h8.73v-8.73h8.73v-8.73h8.73v-8.73h8.73v-8.73h8.73v-8.73h-8.73Zm-8.73,8.73h-8.73v-8.73h8.73v8.73Z"/>
    <path class="cls-1" d="m462.55,43.64v-8.73h-8.73v-8.73h-8.73v-8.73h-8.73v-8.73h-8.73V0h-34.91v8.73h8.73v8.73h8.73v8.73h8.73v8.73h17.45v8.73h-8.73v8.73h8.73v8.73h-17.45v8.73h-8.73v8.73h-8.73v8.73h-8.73v8.73h34.91v-8.73h8.73v-8.73h8.73v-8.73h8.73v-8.73h8.73v-8.73h8.73v-8.73h-8.73Zm-8.73,8.73h-8.73v-8.73h8.73v8.73Z"/>
    <path class="cls-1" d="m541.09,43.64v-8.73h-8.73v-8.73h-8.73v-8.73h-8.73v-8.73h-8.73V0h-34.91v8.73h8.73v8.73h8.73v8.73h8.73v8.73h17.45v8.73h-8.73v8.73h8.73v8.73h-17.45v8.73h-8.73v8.73h-8.73v8.73h-8.73v8.73h34.91v-8.73h8.73v-8.73h8.73v-8.73h8.73v-8.73h8.73v-8.73h8.73v-8.73h-8.73Zm-8.73,8.73h-8.73v-8.73h8.73v8.73Z"/>
    <path class="cls-1" d="m619.64,43.64v-8.73h-8.73v-8.73h-8.73v-8.73h-8.73v-8.73h-8.73V0h-34.91v8.73h8.73v8.73h8.73v8.73h8.73v8.73h17.45v8.73h-8.73v8.73h8.73v8.73h-17.45v8.73h-8.73v8.73h-8.73v8.73h-8.73v8.73h34.91v-8.73h8.73v-8.73h8.73v-8.73h8.73v-8.73h8.73v-8.73h8.73v-8.73h-8.73Zm-8.73,8.73h-8.73v-8.73h8.73v8.73Z"/>
    <path class="cls-1" d="m698.18,43.64v-8.73h-8.73v-8.73h-8.73v-8.73h-8.73v-8.73h-8.73V0h-34.91v8.73h8.73v8.73h8.73v8.73h8.73v8.73h17.45v8.73h-8.73v8.73h8.73v8.73h-17.45v8.73h-8.73v8.73h-8.73v8.73h-8.73v8.73h34.91v-8.73h8.73v-8.73h8.73v-8.73h8.73v-8.73h8.73v-8.73h8.73v-8.73h-8.73Zm-8.73,8.73h-8.73v-8.73h8.73v8.73Z"/>
    <path class="cls-1" d="m776.73,43.64v-8.73h-8.73v-8.73h-8.73v-8.73h-8.73v-8.73h-8.73V0h-34.91v8.73h8.73v8.73h8.73v8.73h8.73v8.73h17.45v8.73h-8.73v8.73h8.73v8.73h-17.45v8.73h-8.73v8.73h-8.73v8.73h-8.73v8.73h34.91v-8.73h8.73v-8.73h8.73v-8.73h8.73v-8.73h8.73v-8.73h8.73v-8.73h-8.73Zm-8.73,8.73h-8.73v-8.73h8.73v8.73Z"/>
    <path class="cls-1" d="m855.27,43.64v-8.73h-8.73v-8.73h-8.73v-8.73h-8.73v-8.73h-8.73V0h-34.91v8.73h8.73v8.73h8.73v8.73h8.73v8.73h17.45v8.73h-8.73v8.73h8.73v8.73h-17.45v8.73h-8.73v8.73h-8.73v8.73h-8.73v8.73h34.91v-8.73h8.73v-8.73h8.73v-8.73h8.73v-8.73h8.73v-8.73h8.73v-8.73h-8.73Zm-8.73,8.73h-8.73v-8.73h8.73v8.73Z"/>
    <path class="cls-1" d="m933.82,43.64v-8.73h-8.73v-8.73h-8.73v-8.73h-8.73v-8.73h-8.73V0h-34.91v8.73h8.73v8.73h8.73v8.73h8.73v8.73h17.45v8.73h-8.73v8.73h8.73v8.73h-17.45v8.73h-8.73v8.73h-8.73v8.73h-8.73v8.73h34.91v-8.73h8.73v-8.73h8.73v-8.73h8.73v-8.73h8.73v-8.73h8.73v-8.73h-8.73Zm-8.73,8.73h-8.73v-8.73h8.73v8.73Z"/>
    <path class="cls-1" d="m1012.36,43.64v-8.73h-8.73v-8.73h-8.73v-8.73h-8.73v-8.73h-8.73V0h-34.91v8.73h8.73v8.73h8.73v8.73h8.73v8.73h17.45v8.73h-8.73v8.73h8.73v8.73h-17.45v8.73h-8.73v8.73h-8.73v8.73h-8.73v8.73h34.91v-8.73h8.73v-8.73h8.73v-8.73h8.73v-8.73h8.73v-8.73h8.73v-8.73h-8.73Zm-8.73,8.73h-8.73v-8.73h8.73v8.73Z"/>
    <path class="cls-1" d="m1090.91,43.64v-8.73h-8.73v-8.73h-8.73v-8.73h-8.73v-8.73h-8.73V0h-34.91v8.73h8.73v8.73h8.73v8.73h8.73v8.73h17.45v8.73h-8.73v8.73h8.73v8.73h-17.45v8.73h-8.73v8.73h-8.73v8.73h-8.73v8.73h34.91v-8.73h8.73v-8.73h8.73v-8.73h8.73v-8.73h8.73v-8.73h8.73v-8.73h-8.73Zm-8.73,8.73h-8.73v-8.73h8.73v8.73Z"/>
    <path class="cls-1" d="m1169.45,43.64v-8.73h-8.73v-8.73h-8.73v-8.73h-8.73v-8.73h-8.73V0h-34.91v8.73h8.73v8.73h8.73v8.73h8.73v8.73h17.45v8.73h-8.73v8.73h8.73v8.73h-17.45v8.73h-8.73v8.73h-8.73v8.73h-8.73v8.73h34.91v-8.73h8.73v-8.73h8.73v-8.73h8.73v-8.73h8.73v-8.73h8.73v-8.73h-8.73Zm-8.73,8.73h-8.73v-8.73h8.73v8.73Z"/>
  </g>
</svg>