<?xml version="1.0" encoding="UTF-8"?>
<svg id="Layer_2" data-name="Layer 2" xmlns="http://www.w3.org/2000/svg" viewBox="0 0 68 400">
  <defs>
    <style>
      .cls-1 {
        fill: #00fa9a;
        stroke-width: 0px;
      }
    </style>
  </defs>
  <g id="Layer_2-2" data-name="Layer 2">
    <polygon class="cls-1" points="68 256 68 272 64 272 64 276 60 276 60 280 56 280 56 284 52 284 52 288 48 288 48 292 44 292 44 296 40 296 40 300 36 300 36 304 32 304 32 308 28 308 28 312 24 312 24 316 20 316 20 320 16 320 16 324 12 324 12 328 8 328 8 332 4 332 4 336 0 336 0 320 4 320 4 316 8 316 8 312 12 312 12 308 16 308 16 304 20 304 20 300 24 300 24 296 28 296 28 292 32 292 32 288 36 288 36 284 40 284 40 280 44 280 44 276 48 276 48 272 52 272 52 268 56 268 56 264 60 264 60 260 64 260 64 256 68 256"/>
    <polygon class="cls-1" points="68 288 68 304 64 304 64 308 60 308 60 312 56 312 56 316 52 316 52 320 48 320 48 324 44 324 44 328 40 328 40 332 36 332 36 336 32 336 32 340 28 340 28 344 24 344 24 348 20 348 20 352 16 352 16 356 12 356 12 360 8 360 8 364 4 364 4 368 0 368 0 352 4 352 4 348 8 348 8 344 12 344 12 340 16 340 16 336 20 336 20 332 24 332 24 328 28 328 28 324 32 324 32 320 36 320 36 316 40 316 40 312 44 312 44 308 48 308 48 304 52 304 52 300 56 300 56 296 60 296 60 292 64 292 64 288 68 288"/>
    <polygon class="cls-1" points="68 320 68 336 64 336 64 340 60 340 60 344 56 344 56 348 52 348 52 352 48 352 48 356 44 356 44 360 40 360 40 364 36 364 36 368 32 368 32 372 28 372 28 376 24 376 24 380 20 380 20 384 16 384 16 388 12 388 12 392 8 392 8 396 4 396 4 400 0 400 0 384 4 384 4 380 8 380 8 376 12 376 12 372 16 372 16 368 20 368 20 364 24 364 24 360 28 360 28 356 32 356 32 352 36 352 36 348 40 348 40 344 44 344 44 340 48 340 48 336 52 336 52 332 56 332 56 328 60 328 60 324 64 324 64 320 68 320"/>
    <polygon class="cls-1" points="68 224 68 240 64 240 64 244 60 244 60 248 56 248 56 252 52 252 52 256 48 256 48 260 44 260 44 264 40 264 40 268 36 268 36 272 32 272 32 276 28 276 28 280 24 280 24 284 20 284 20 288 16 288 16 292 12 292 12 296 8 296 8 300 4 300 4 304 0 304 0 288 4 288 4 284 8 284 8 280 12 280 12 276 16 276 16 272 20 272 20 268 24 268 24 264 28 264 28 260 32 260 32 256 36 256 36 252 40 252 40 248 44 248 44 244 48 244 48 240 52 240 52 236 56 236 56 232 60 232 60 228 64 228 64 224 68 224"/>
    <polygon class="cls-1" points="68 192 68 208 64 208 64 212 60 212 60 216 56 216 56 220 52 220 52 224 48 224 48 228 44 228 44 232 40 232 40 236 36 236 36 240 32 240 32 244 28 244 28 248 24 248 24 252 20 252 20 256 16 256 16 260 12 260 12 264 8 264 8 268 4 268 4 272 0 272 0 256 4 256 4 252 8 252 8 248 12 248 12 244 16 244 16 240 20 240 20 236 24 236 24 232 28 232 28 228 32 228 32 224 36 224 36 220 40 220 40 216 44 216 44 212 48 212 48 208 52 208 52 204 56 204 56 200 60 200 60 196 64 196 64 192 68 192"/>
    <polygon class="cls-1" points="68 160 68 176 64 176 64 180 60 180 60 184 56 184 56 188 52 188 52 192 48 192 48 196 44 196 44 200 40 200 40 204 36 204 36 208 32 208 32 212 28 212 28 216 24 216 24 220 20 220 20 224 16 224 16 228 12 228 12 232 8 232 8 236 4 236 4 240 0 240 0 224 4 224 4 220 8 220 8 216 12 216 12 212 16 212 16 208 20 208 20 204 24 204 24 200 28 200 28 196 32 196 32 192 36 192 36 188 40 188 40 184 44 184 44 180 48 180 48 176 52 176 52 172 56 172 56 168 60 168 60 164 64 164 64 160 68 160"/>
    <polygon class="cls-1" points="68 128 68 144 64 144 64 148 60 148 60 152 56 152 56 156 52 156 52 160 48 160 48 164 44 164 44 168 40 168 40 172 36 172 36 176 32 176 32 180 28 180 28 184 24 184 24 188 20 188 20 192 16 192 16 196 12 196 12 200 8 200 8 204 4 204 4 208 0 208 0 192 4 192 4 188 8 188 8 184 12 184 12 180 16 180 16 176 20 176 20 172 24 172 24 168 28 168 28 164 32 164 32 160 36 160 36 156 40 156 40 152 44 152 44 148 48 148 48 144 52 144 52 140 56 140 56 136 60 136 60 132 64 132 64 128 68 128"/>
    <polygon class="cls-1" points="68 96 68 112 64 112 64 116 60 116 60 120 56 120 56 124 52 124 52 128 48 128 48 132 44 132 44 136 40 136 40 140 36 140 36 144 32 144 32 148 28 148 28 152 24 152 24 156 20 156 20 160 16 160 16 164 12 164 12 168 8 168 8 172 4 172 4 176 0 176 0 160 4 160 4 156 8 156 8 152 12 152 12 148 16 148 16 144 20 144 20 140 24 140 24 136 28 136 28 132 32 132 32 128 36 128 36 124 40 124 40 120 44 120 44 116 48 116 48 112 52 112 52 108 56 108 56 104 60 104 60 100 64 100 64 96 68 96"/>
    <polygon class="cls-1" points="68 64 68 80 64 80 64 84 60 84 60 88 56 88 56 92 52 92 52 96 48 96 48 100 44 100 44 104 40 104 40 108 36 108 36 112 32 112 32 116 28 116 28 120 24 120 24 124 20 124 20 128 16 128 16 132 12 132 12 136 8 136 8 140 4 140 4 144 0 144 0 128 4 128 4 124 8 124 8 120 12 120 12 116 16 116 16 112 20 112 20 108 24 108 24 104 28 104 28 100 32 100 32 96 36 96 36 92 40 92 40 88 44 88 44 84 48 84 48 80 52 80 52 76 56 76 56 72 60 72 60 68 64 68 64 64 68 64"/>
    <polygon class="cls-1" points="68 32 68 48 64 48 64 52 60 52 60 56 56 56 56 60 52 60 52 64 48 64 48 68 44 68 44 72 40 72 40 76 36 76 36 80 32 80 32 84 28 84 28 88 24 88 24 92 20 92 20 96 16 96 16 100 12 100 12 104 8 104 8 108 4 108 4 112 0 112 0 96 4 96 4 92 8 92 8 88 12 88 12 84 16 84 16 80 20 80 20 76 24 76 24 72 28 72 28 68 32 68 32 64 36 64 36 60 40 60 40 56 44 56 44 52 48 52 48 48 52 48 52 44 56 44 56 40 60 40 60 36 64 36 64 32 68 32"/>
    <polygon class="cls-1" points="68 0 68 16 64 16 64 20 60 20 60 24 56 24 56 28 52 28 52 32 48 32 48 36 44 36 44 40 40 40 40 44 36 44 36 48 32 48 32 52 28 52 28 56 24 56 24 60 20 60 20 64 16 64 16 68 12 68 12 72 8 72 8 76 4 76 4 80 0 80 0 64 4 64 4 60 8 60 8 56 12 56 12 52 16 52 16 48 20 48 20 44 24 44 24 40 28 40 28 36 32 36 32 32 36 32 36 28 40 28 40 24 44 24 44 20 48 20 48 16 52 16 52 12 56 12 56 8 60 8 60 4 64 4 64 0 68 0"/>
  </g>
</svg>