<?xml version="1.0" encoding="UTF-8"?>
<svg id="Layer_2" data-name="Layer 2" xmlns="http://www.w3.org/2000/svg" viewBox="0 0 176 296">
  <defs>
    <style>
      .cls-1 {
        fill: #0000cd;
      }

      .cls-1, .cls-2 {
        stroke-width: 0px;
      }

      .cls-2 {
        fill: #00fa9a;
      }
    </style>
  </defs>
  <g id="Layer_1-2" data-name="Layer 1">
    <rect class="cls-2" x="8" y="32" width="16" height="8"/>
    <rect class="cls-2" x="32" y="48" width="16" height="8"/>
    <rect class="cls-1" x="40" y="216" width="8" height="32"/>
    <rect class="cls-1" x="48" y="200" width="8" height="16"/>
    <rect class="cls-1" x="48" y="248" width="8" height="8"/>
    <rect class="cls-2" x="48" y="40" width="24" height="8"/>
    <rect class="cls-2" x="48" y="8" width="24" height="8"/>
    <rect class="cls-1" x="56" y="128" width="8" height="16"/>
    <rect class="cls-1" x="56" y="152" width="8" height="24"/>
    <rect class="cls-1" x="56" y="184" width="8" height="16"/>
    <rect class="cls-1" x="56" y="256" width="8" height="8"/>
    <rect class="cls-1" x="56" y="216" width="8" height="32"/>
    <polygon class="cls-1" points="72 48 72 56 64 56 64 64 56 64 56 48 72 48"/>
    <rect class="cls-1" x="64" y="144" width="8" height="8"/>
    <rect class="cls-1" x="64" y="176" width="8" height="8"/>
    <rect class="cls-1" x="64" y="264" width="8" height="32"/>
    <rect class="cls-1" x="64" y="120" width="16" height="8"/>
    <rect class="cls-1" x="72" y="152" width="8" height="8"/>
    <rect class="cls-1" x="72" y="184" width="32" height="8"/>
    <rect class="cls-1" x="72" y="136" width="8" height="8"/>
    <rect class="cls-1" x="80" y="128" width="16" height="8"/>
    <rect class="cls-1" x="80" y="280" width="16" height="8"/>
    <rect class="cls-1" x="80" y="224" width="16" height="16"/>
    <rect class="cls-1" x="80" y="160" width="16" height="8"/>
    <rect class="cls-1" x="104" y="264" width="8" height="32"/>
    <rect class="cls-2" x="104" y="8" width="24" height="8"/>
    <rect class="cls-1" x="112" y="216" width="8" height="32"/>
    <rect class="cls-1" x="96" y="120" width="16" height="8"/>
    <rect class="cls-1" x="112" y="128" width="8" height="16"/>
    <rect class="cls-1" x="104" y="144" width="8" height="8"/>
    <rect class="cls-1" x="112" y="152" width="8" height="24"/>
    <rect class="cls-1" x="104" y="176" width="8" height="8"/>
    <rect class="cls-1" x="96" y="136" width="8" height="8"/>
    <rect class="cls-1" x="96" y="152" width="8" height="8"/>
    <rect class="cls-1" x="112" y="184" width="8" height="16"/>
    <rect class="cls-1" x="120" y="200" width="8" height="16"/>
    <rect class="cls-1" x="128" y="216" width="8" height="32"/>
    <rect class="cls-1" x="120" y="248" width="8" height="8"/>
    <rect class="cls-1" x="112" y="256" width="8" height="8"/>
    <polygon class="cls-1" points="144 88 144 96 120 96 120 88 112 88 112 72 104 72 104 48 112 48 112 64 120 64 120 80 128 80 128 88 144 88"/>
    <rect class="cls-2" x="128" y="48" width="16" height="8"/>
    <rect class="cls-2" x="144" y="56" width="8" height="240"/>
    <rect class="cls-2" y="40" width="8" height="256"/>
    <rect class="cls-2" x="24" y="56" width="8" height="240"/>
    <rect class="cls-1" x="96" y="288" width="8" height="8"/>
    <rect class="cls-1" x="72" y="288" width="8" height="8"/>
    <polygon class="cls-1" points="72 88 72 96 40 96 40 88 32 88 32 80 48 80 48 88 72 88"/>
    <polygon class="cls-1" points="80 80 80 88 64 88 64 80 48 80 48 72 40 72 40 64 32 64 32 56 48 56 48 64 56 64 56 72 72 72 72 80 80 80"/>
    <rect class="cls-2" x="72" y="32" width="32" height="8"/>
    <rect class="cls-2" x="104" y="40" width="24" height="8"/>
    <polygon class="cls-1" points="104 80 104 104 96 104 96 88 88 88 88 72 80 72 80 40 88 40 88 64 96 64 96 80 104 80"/>
    <rect class="cls-2" x="24" y="24" width="8" height="8"/>
    <rect class="cls-2" x="32" y="16" width="16" height="8"/>
    <rect class="cls-2" x="72" width="32" height="8"/>
    <rect class="cls-2" x="128" y="16" width="16" height="8"/>
    <rect class="cls-2" x="144" y="24" width="8" height="8"/>
    <rect class="cls-2" x="152" y="32" width="16" height="8"/>
    <rect class="cls-2" x="168" y="40" width="8" height="256"/>
  </g>
</svg>