<?xml version="1.0" encoding="UTF-8"?>
<svg id="Layer_2" data-name="Layer 2" xmlns="http://www.w3.org/2000/svg" viewBox="0 0 176 296">
  <defs>
    <style>
      .cls-1 {
        fill: #0000cd;
      }

      .cls-1, .cls-2 {
        stroke-width: 0px;
      }

      .cls-2 {
        fill: #00fa9a;
      }
    </style>
  </defs>
  <g id="Layer_1-2" data-name="Layer 1">
    <rect class="cls-2" x="8" y="32" width="16" height="8"/>
    <rect class="cls-2" x="32" y="48" width="16" height="8"/>
    <rect class="cls-2" x="48" y="40" width="24" height="8"/>
    <rect class="cls-2" x="48" y="8" width="24" height="8"/>
    <rect class="cls-1" x="56" y="168" width="8" height="24"/>
    <rect class="cls-1" x="56" y="120" width="8" height="16"/>
    <rect class="cls-1" x="64" y="192" width="8" height="8"/>
    <rect class="cls-1" x="64" y="104" width="8" height="16"/>
    <rect class="cls-1" x="72" y="168" width="8" height="24"/>
    <rect class="cls-1" x="72" y="200" width="8" height="40"/>
    <rect class="cls-1" x="72" y="96" width="8" height="8"/>
    <rect class="cls-1" x="72" y="120" width="8" height="16"/>
    <rect class="cls-1" x="80" y="192" width="8" height="8"/>
    <rect class="cls-1" x="80" y="240" width="8" height="8"/>
    <rect class="cls-1" x="80" y="88" width="16" height="8"/>
    <polygon class="cls-1" points="96 104 96 112 88 112 88 120 80 120 80 104 96 104"/>
    <rect class="cls-2" x="104" y="8" width="24" height="8"/>
    <rect class="cls-1" x="96" y="96" width="16" height="8"/>
    <rect class="cls-1" x="112" y="104" width="8" height="24"/>
    <rect class="cls-1" x="96" y="112" width="8" height="16"/>
    <rect class="cls-1" x="112" y="184" width="8" height="16"/>
    <rect class="cls-1" x="104" y="200" width="8" height="24"/>
    <rect class="cls-1" x="96" y="224" width="8" height="8"/>
    <rect class="cls-1" x="88" y="232" width="8" height="8"/>
    <rect class="cls-1" x="88" y="200" width="8" height="24"/>
    <rect class="cls-1" x="96" y="184" width="8" height="16"/>
    <rect class="cls-2" x="128" y="48" width="16" height="8"/>
    <rect class="cls-2" x="144" y="56" width="8" height="240"/>
    <rect class="cls-2" y="40" width="8" height="256"/>
    <rect class="cls-2" x="24" y="56" width="8" height="240"/>
    <polygon class="cls-1" points="144 144 144 152 128 152 128 184 120 184 120 152 112 152 112 184 104 184 104 152 72 152 72 168 64 168 64 152 56 152 56 168 48 168 48 152 32 152 32 144 48 144 48 136 56 136 56 144 64 144 64 136 72 136 72 144 104 144 104 128 112 128 112 144 120 144 120 128 128 128 128 144 144 144"/>
    <rect class="cls-2" x="72" y="32" width="32" height="8"/>
    <rect class="cls-2" x="104" y="40" width="24" height="8"/>
    <rect class="cls-2" x="24" y="24" width="8" height="8"/>
    <rect class="cls-2" x="32" y="16" width="16" height="8"/>
    <rect class="cls-2" x="72" width="32" height="8"/>
    <rect class="cls-2" x="128" y="16" width="16" height="8"/>
    <rect class="cls-2" x="144" y="24" width="8" height="8"/>
    <rect class="cls-2" x="152" y="32" width="16" height="8"/>
    <rect class="cls-2" x="168" y="40" width="8" height="256"/>
  </g>
</svg>