<svg width="471" height="96" viewBox="0 0 471 96" fill="none" xmlns="http://www.w3.org/2000/svg">
<g clip-path="url(#clip0_452_20)">
<g clip-path="url(#clip1_452_20)">
<path d="M24 48H0V96H24V48Z" fill="#0000CD"/>
<path d="M96 0V48H72V72H96V96H48V48H24V24H72V0H96Z" fill="#0000CD"/>
<path d="M240 48V96H144V72H168V24H192V72H216V48H240Z" fill="#0000CD"/>
<path d="M336 48V96H288V72H312V48H336Z" fill="#0000CD"/>
<path d="M312 0H288V48H312V0Z" fill="#0000CD"/>
</g>
<g clip-path="url(#clip2_452_20)">
<path d="M447 48L399 48V72L423 72V96L471 96V72H447V48Z" fill="#0000CD"/>
</g>
</g>
<defs>
<clipPath id="clip0_452_20">
<rect width="471" height="96" fill="white"/>
</clipPath>
<clipPath id="clip1_452_20">
<rect width="336" height="96" fill="white"/>
</clipPath>
<clipPath id="clip2_452_20">
<rect width="48" height="72" fill="white" transform="matrix(0 -1 -1 0 471 96)"/>
</clipPath>
</defs>
</svg>
