<svg width="80" height="80" viewBox="0 0 80 80" fill="none" xmlns="http://www.w3.org/2000/svg">
<path d="M7.27 36.36H0V43.63H7.27V36.36Z" fill="#00FA9A"/>
<path d="M50.9099 7.27H43.6399V21.82H50.9099V7.27Z" fill="#00FA9A"/>
<path d="M43.6301 0H36.3601V7.27H43.6301V0Z" fill="#00FA9A"/>
<path d="M21.82 29.09H7.27002V36.36H21.82V29.09Z" fill="#00FA9A"/>
<path d="M29.0901 21.82H21.8201V29.09H29.0901V21.82Z" fill="#00FA9A"/>
<path d="M36.3601 7.27H29.0901V21.82H36.3601V7.27Z" fill="#00FA9A"/>
<path d="M58.1799 21.82H50.9099V29.09H58.1799V21.82Z" fill="#00FA9A"/>
<path d="M72.7299 29.09H58.1799V36.36H72.7299V29.09Z" fill="#00FA9A"/>
<path d="M80 36.36H72.73V43.63H80V36.36Z" fill="#00FA9A"/>
<path d="M72.7299 43.64H58.1799V50.91H72.7299V43.64Z" fill="#00FA9A"/>
<path d="M21.82 43.64H7.27002V50.91H21.82V43.64Z" fill="#00FA9A"/>
<path d="M29.0901 50.91H21.8201V58.18H29.0901V50.91Z" fill="#00FA9A"/>
<path d="M58.1799 50.91H50.9099V58.18H58.1799V50.91Z" fill="#00FA9A"/>
<path d="M36.3601 58.18H29.0901V72.73H36.3601V58.18Z" fill="#00FA9A"/>
<path d="M50.9099 58.18H43.6399V72.73H50.9099V58.18Z" fill="#00FA9A"/>
<path d="M43.6301 72.73H36.3601V80H43.6301V72.73Z" fill="#00FA9A"/>
<path d="M36.3601 36.36H29.0901V43.63H36.3601V36.36Z" fill="#00FA9A"/>
<path d="M43.6301 29.09H36.3601V36.36H43.6301V29.09Z" fill="#00FA9A"/>
<path d="M43.6301 43.64H36.3601V50.91H43.6301V43.64Z" fill="#00FA9A"/>
<path d="M50.9099 36.36H43.6399V43.63H50.9099V36.36Z" fill="#00FA9A"/>
</svg>
