<svg width="240" height="80" viewBox="0 0 240 80" fill="none" xmlns="http://www.w3.org/2000/svg">
<path d="M167.27 36.3599H160V43.6299H167.27V36.3599Z" fill="#00FA9A"/>
<path d="M210.91 7.27002H203.64V21.82H210.91V7.27002Z" fill="#00FA9A"/>
<path d="M203.63 0H196.36V7.27H203.63V0Z" fill="#00FA9A"/>
<path d="M181.82 29.0898H167.27V36.3598H181.82V29.0898Z" fill="#00FA9A"/>
<path d="M189.09 21.8198H181.82V29.0898H189.09V21.8198Z" fill="#00FA9A"/>
<path d="M196.36 7.27002H189.09V21.82H196.36V7.27002Z" fill="#00FA9A"/>
<path d="M218.18 21.8198H210.91V29.0898H218.18V21.8198Z" fill="#00FA9A"/>
<path d="M232.73 29.0898H218.18V36.3598H232.73V29.0898Z" fill="#00FA9A"/>
<path d="M240 36.3599H232.73V43.6299H240V36.3599Z" fill="#00FA9A"/>
<path d="M232.73 43.6401H218.18V50.9101H232.73V43.6401Z" fill="#00FA9A"/>
<path d="M181.82 43.6401H167.27V50.9101H181.82V43.6401Z" fill="#00FA9A"/>
<path d="M189.09 50.9102H181.82V58.1802H189.09V50.9102Z" fill="#00FA9A"/>
<path d="M218.18 50.9102H210.91V58.1802H218.18V50.9102Z" fill="#00FA9A"/>
<path d="M196.36 58.1802H189.09V72.7302H196.36V58.1802Z" fill="#00FA9A"/>
<path d="M210.91 58.1802H203.64V72.7302H210.91V58.1802Z" fill="#00FA9A"/>
<path d="M203.63 72.73H196.36V80H203.63V72.73Z" fill="#00FA9A"/>
<path d="M196.36 36.3599H189.09V43.6299H196.36V36.3599Z" fill="#00FA9A"/>
<path d="M203.63 29.0898H196.36V36.3598H203.63V29.0898Z" fill="#00FA9A"/>
<path d="M203.63 43.6401H196.36V50.9101H203.63V43.6401Z" fill="#00FA9A"/>
<path d="M210.91 36.3599H203.64V43.6299H210.91V36.3599Z" fill="#00FA9A"/>
<path d="M116.37 43.6401H101.82V50.9101H116.37V43.6401Z" fill="#00FA9A"/>
<path d="M123.63 36.3599H116.36V43.6299H123.63V36.3599Z" fill="#00FA9A"/>
<path d="M138.19 29.0898H123.64V36.3598H138.19V29.0898Z" fill="#00FA9A"/>
<path d="M138.19 43.6401H123.64V50.9101H138.19V43.6401Z" fill="#00FA9A"/>
<path d="M145.45 36.3599H138.18V43.6299H145.45V36.3599Z" fill="#00FA9A"/>
<path d="M145.45 29.0898V36.3598H152.73V43.6398H145.45V50.9098H160V29.0898H145.45Z" fill="#00FA9A"/>
<path d="M123.63 50.9102H116.36V65.4602H123.63V50.9102Z" fill="#00FA9A"/>
<path d="M116.36 72.7302V65.4502H109.09V80.0002H130.91V65.4502H123.64V72.7302H116.36Z" fill="#00FA9A"/>
<path d="M123.64 7.27V14.55H130.91V0H109.09V14.55H116.36V7.27H123.64Z" fill="#00FA9A"/>
<path d="M123.63 14.5498H116.36V29.0998H123.63V14.5498Z" fill="#00FA9A"/>
<path d="M87.27 36.3598H94.55V29.0898H80V50.9098H94.55V43.6398H87.27V36.3598Z" fill="#00FA9A"/>
<path d="M116.37 29.0898H101.82V36.3598H116.37V29.0898Z" fill="#00FA9A"/>
<path d="M101.82 36.3599H94.5498V43.6299H101.82V36.3599Z" fill="#00FA9A"/>
<path d="M7.27 36.3599H0V43.6299H7.27V36.3599Z" fill="#00FA9A"/>
<path d="M29.09 43.6401H7.27002V50.9101H29.09V43.6401Z" fill="#00FA9A"/>
<path d="M29.09 29.0898H7.27002V36.3598H29.09V29.0898Z" fill="#00FA9A"/>
<path d="M36.3598 50.9102H29.0898V72.7302H36.3598V50.9102Z" fill="#00FA9A"/>
<path d="M36.3598 7.27002H29.0898V29.09H36.3598V7.27002Z" fill="#00FA9A"/>
<path d="M43.6299 43.6401H36.3599V50.9101H43.6299V43.6401Z" fill="#00FA9A"/>
<path d="M43.6299 72.73H36.3599V80H43.6299V72.73Z" fill="#00FA9A"/>
<path d="M43.6299 29.0898H36.3599V36.3598H43.6299V29.0898Z" fill="#00FA9A"/>
<path d="M50.9101 50.9102H43.6401V72.7302H50.9101V50.9102Z" fill="#00FA9A"/>
<path d="M43.6299 0H36.3599V7.27H43.6299V0Z" fill="#00FA9A"/>
<path d="M50.9101 7.27002H43.6401V29.09H50.9101V7.27002Z" fill="#00FA9A"/>
<path d="M72.7302 29.0898H50.9102V36.3598H72.7302V29.0898Z" fill="#00FA9A"/>
<path d="M36.3598 36.3599H29.0898V43.6299H36.3598V36.3599Z" fill="#00FA9A"/>
<path d="M80 36.3599H72.73V43.6299H80V36.3599Z" fill="#00FA9A"/>
<path d="M50.9101 36.3599H43.6401V43.6299H50.9101V36.3599Z" fill="#00FA9A"/>
<path d="M72.7302 43.6401H50.9102V50.9101H72.7302V43.6401Z" fill="#00FA9A"/>
</svg>
