<?xml version="1.0" encoding="UTF-8"?>
<svg id="Layer_2" data-name="Layer 2" xmlns="http://www.w3.org/2000/svg" viewBox="0 0 176 296">
  <defs>
    <style>
      .cls-1 {
        fill: #0000cd;
      }

      .cls-1, .cls-2 {
        stroke-width: 0px;
      }

      .cls-2 {
        fill: #00fa9a;
      }
    </style>
  </defs>
  <g id="Layer_1-2" data-name="Layer 1">
    <rect class="cls-2" x="8" y="32" width="16" height="8"/>
    <rect class="cls-2" x="32" y="48" width="16" height="8"/>
    <rect class="cls-1" x="40" y="120" width="8" height="16"/>
    <rect class="cls-1" x="40" y="176" width="8" height="16"/>
    <rect class="cls-1" x="40" y="152" width="8" height="8"/>
    <rect class="cls-1" x="40" y="72" width="8" height="16"/>
    <rect class="cls-1" x="48" y="136" width="8" height="8"/>
    <rect class="cls-1" x="48" y="168" width="8" height="8"/>
    <rect class="cls-1" x="48" y="64" width="8" height="8"/>
    <rect class="cls-2" x="48" y="40" width="24" height="8"/>
    <rect class="cls-2" x="48" y="8" width="24" height="8"/>
    <rect class="cls-1" x="56" y="232" width="32" height="8"/>
    <rect class="cls-1" x="56" y="264" width="32" height="8"/>
    <rect class="cls-1" x="56" y="144" width="16" height="8"/>
    <rect class="cls-1" x="56" y="160" width="16" height="8"/>
    <rect class="cls-1" x="56" y="56" width="16" height="8"/>
    <rect class="cls-1" x="72" y="152" width="8" height="8"/>
    <rect class="cls-1" x="80" y="104" width="8" height="8"/>
    <rect class="cls-1" x="88" y="208" width="32" height="8"/>
    <rect class="cls-2" x="104" y="8" width="24" height="8"/>
    <rect class="cls-1" x="120" y="216" width="24" height="8"/>
    <rect class="cls-1" x="88" y="240" width="32" height="8"/>
    <rect class="cls-1" x="120" y="248" width="24" height="8"/>
    <rect class="cls-1" x="120" y="64" width="8" height="8"/>
    <rect class="cls-1" x="112" y="72" width="8" height="16"/>
    <rect class="cls-1" x="104" y="88" width="8" height="8"/>
    <rect class="cls-1" x="88" y="96" width="16" height="8"/>
    <rect class="cls-1" x="88" y="112" width="16" height="8"/>
    <rect class="cls-1" x="104" y="120" width="8" height="8"/>
    <rect class="cls-1" x="112" y="128" width="8" height="16"/>
    <rect class="cls-1" x="120" y="144" width="8" height="8"/>
    <rect class="cls-1" x="128" y="128" width="8" height="16"/>
    <rect class="cls-1" x="128" y="72" width="8" height="16"/>
    <rect class="cls-1" x="112" y="104" width="8" height="8"/>
    <rect class="cls-1" x="120" y="96" width="8" height="8"/>
    <rect class="cls-1" x="128" y="104" width="8" height="8"/>
    <rect class="cls-1" x="120" y="112" width="8" height="8"/>
    <rect class="cls-1" x="120" y="184" width="8" height="8"/>
    <rect class="cls-1" x="128" y="192" width="16" height="8"/>
    <rect class="cls-2" x="128" y="48" width="16" height="8"/>
    <rect class="cls-2" x="144" y="56" width="8" height="240"/>
    <rect class="cls-2" y="40" width="8" height="256"/>
    <rect class="cls-2" x="24" y="56" width="8" height="240"/>
    <rect class="cls-1" x="120" y="280" width="24" height="8"/>
    <rect class="cls-1" x="88" y="272" width="32" height="8"/>
    <rect class="cls-1" x="32" y="272" width="24" height="8"/>
    <rect class="cls-1" x="32" y="240" width="24" height="8"/>
    <rect class="cls-1" x="32" y="208" width="24" height="8"/>
    <rect class="cls-1" x="56" y="200" width="32" height="8"/>
    <rect class="cls-1" x="32" y="192" width="8" height="8"/>
    <rect class="cls-1" x="128" y="176" width="16" height="8"/>
    <rect class="cls-1" x="32" y="160" width="8" height="8"/>
    <rect class="cls-1" x="32" y="144" width="8" height="8"/>
    <rect class="cls-1" x="136" y="120" width="8" height="8"/>
    <rect class="cls-1" x="32" y="112" width="8" height="8"/>
    <rect class="cls-1" x="32" y="88" width="8" height="8"/>
    <rect class="cls-1" x="136" y="88" width="8" height="8"/>
    <rect class="cls-1" x="32" y="56" width="8" height="8"/>
    <rect class="cls-1" x="72" y="48" width="8" height="8"/>
    <rect class="cls-2" x="72" y="32" width="32" height="8"/>
    <rect class="cls-2" x="104" y="40" width="24" height="8"/>
    <rect class="cls-2" x="24" y="24" width="8" height="8"/>
    <rect class="cls-2" x="32" y="16" width="16" height="8"/>
    <rect class="cls-2" x="72" width="32" height="8"/>
    <rect class="cls-2" x="128" y="16" width="16" height="8"/>
    <rect class="cls-2" x="144" y="24" width="8" height="8"/>
    <rect class="cls-2" x="152" y="32" width="16" height="8"/>
    <rect class="cls-2" x="168" y="40" width="8" height="256"/>
  </g>
</svg>