<?xml version="1.0" encoding="UTF-8"?>
<svg id="Layer_2" data-name="Layer 2" xmlns="http://www.w3.org/2000/svg" viewBox="0 0 176 296">
  <defs>
    <style>
      .cls-1 {
        fill: #0000cd;
      }

      .cls-1, .cls-2 {
        stroke-width: 0px;
      }

      .cls-2 {
        fill: #00fa9a;
      }
    </style>
  </defs>
  <g id="Layer_1-2" data-name="Layer 1">
    <rect class="cls-2" x="8" y="32" width="16" height="8"/>
    <rect class="cls-2" x="24" y="56" width="8" height="240"/>
    <rect class="cls-2" x="32" y="48" width="16" height="8"/>
    <polygon class="cls-2" points="72 40 72 72 64 72 64 48 48 48 48 40 72 40"/>
    <path class="cls-1" d="m48,72v48h80v-48H48Zm72,40H56v-32h64v32Z"/>
    <rect class="cls-2" x="120" y="168" width="16" height="8"/>
    <rect class="cls-2" x="128" y="48" width="16" height="8"/>
    <rect class="cls-2" y="40" width="8" height="256"/>
    <rect class="cls-2" x="144" y="56" width="8" height="240"/>
    <path class="cls-2" d="m104,120v32h-32v-32h-8v176h8v-16h32v16h8V120h-8Zm0,152h-32v-32h32v32Zm0-40h-32v-32h32v32Zm0-40h-32v-32h32v32Z"/>
    <rect class="cls-2" x="72" y="32" width="32" height="8"/>
    <polygon class="cls-2" points="128 40 128 48 112 48 112 72 104 72 104 40 128 40"/>
    <rect class="cls-2" x="24" y="24" width="8" height="8"/>
    <rect class="cls-2" x="32" y="16" width="16" height="8"/>
    <rect class="cls-2" x="48" y="8" width="24" height="8"/>
    <rect class="cls-2" x="72" width="32" height="8"/>
    <rect class="cls-2" x="104" y="8" width="24" height="8"/>
    <rect class="cls-2" x="128" y="16" width="16" height="8"/>
    <rect class="cls-2" x="144" y="24" width="8" height="8"/>
    <rect class="cls-2" x="152" y="32" width="16" height="8"/>
    <rect class="cls-2" x="168" y="40" width="8" height="256"/>
  </g>
</svg>